# xmcd
#
# Track frame offsets: 
#        150
#        19177
#        29640
#        48845
#        66165
#        80267
#        97212
#        112912
#        127640
#        143995
#
# Disc length: 2154 seconds
#
# Revision: 0
# Processed by: cddbd v1.5.1PL0 Copyright (c) Steve Scherf et al.
# Submitted via: ExactAudioCopy v0.95a5
#
DISCID=7f08680a
DTITLE=Jussi and Boys and Friends - Keh‰ Kaartuu
DYEAR=2002
DGENRE=
TTITLE0=Kun aika k‰‰ntyi rauhaan p‰in - The Night They Drove Old Dixie
TTITLE0=Town
TTITLE1=Hallelujaa h‰nt‰ rakastan - Hallelujah I Love Her So
TTITLE2=Turn On Your Love Light
TTITLE3=P‰‰st‰ pois tahtoisin - That Lucky Old Sun
TTITLE4=Korkataan taas - Wine
TTITLE5=Hetken viivyit l‰hell‰in - I May Never Get To Heaven
TTITLE6=You've Lost That Loving Feelin'
TTITLE7=El‰m‰ jatkuu
TTITLE8=River Deep Mountain High
TTITLE9=Herran huosta kaiken kantaa - Will The Circle Be Unbroken
EXTD=
EXTT0=
EXTT1=
EXTT2=
EXTT3=
EXTT4=
EXTT5=
EXTT6=
EXTT7=
EXTT8=
EXTT9=
PLAYORDER=
